Bevan.ufo
<glyph name="A" format="1">
  <advance width="1700"/>
  <unicode hex="0041"/>
  <outline>
    <contour>
      <point x="594" y="523" type="line"/>
      <point x="567" y="354" type="line"/>
      <point x="710" y="354" type="line"/>
      <point x="710" y="0" type="line"/>
      <point x="32" y="0" type="line"/>
      <point x="32" y="354" type="line"/>
      <point x="189" y="354" type="line"/>
      <point x="431" y="1240" type="line"/>
      <point x="219" y="1240" type="line"/>
      <point x="219" y="1593" type="line"/>
      <point x="1213" y="1593" type="line"/>
      <point x="1535" y="354" type="line"/>
      <point x="1662" y="354" type="line"/>
      <point x="1662" y="0" type="line"/>
      <point x="835" y="0" type="line"/>
      <point x="835" y="354" type="line"/>
      <point x="959" y="354" type="line"/>
      <point x="917" y="523" type="line"/>
    </contour>
    <contour>
      <point x="640" y="763" type="line"/>
      <point x="869" y="763" type="line"/>
      <point x="752" y="1251" type="line"/>
    </contour>
    <contour>
      <point x="847" y="1593" type="move" name="top"/>
    </contour>
    <contour>
      <point x="1280" y="0" type="move" name="bot"/>
    </contour>
  </outline>
</glyph>
<glyph name="E" format="1">
  <advance width="1403"/>
  <unicode hex="0045"/>
  <outline>
    <contour>
      <point x="1054" y="959" type="line"/>
      <point x="1322" y="959" type="line"/>
      <point x="1322" y="1593" type="line"/>
      <point x="54" y="1593" type="line"/>
      <point x="54" y="1240" type="line"/>
      <point x="212" y="1240" type="line"/>
      <point x="212" y="359" type="line"/>
      <point x="54" y="359" type="line"/>
      <point x="54" y="0" type="line"/>
      <point x="1333" y="0" type="line"/>
      <point x="1333" y="677" type="line"/>
      <point x="1060" y="677" type="line"/>
      <point x="983" y="359" type="line"/>
      <point x="765" y="359" type="line"/>
      <point x="765" y="716" type="line"/>
      <point x="970" y="716" type="line"/>
      <point x="970" y="978" type="line"/>
      <point x="765" y="978" type="line"/>
      <point x="765" y="1240" type="line"/>
      <point x="978" y="1240" type="line"/>
    </contour>
    <contour>
      <point x="693" y="1593" type="move" name="top"/>
    </contour>
    <contour>
      <point x="693" y="0" type="move" name="bot"/>
    </contour>
  </outline>
</glyph>
<glyph name="K" format="1">
  <advance width="1747"/>
  <unicode hex="004B"/>
  <outline>
    <contour>
      <point x="1028" y="307" type="line"/>
      <point x="1028" y="102"/>
      <point x="1140" y="0"/>
      <point x="1364" y="0" type="curve" smooth="yes"/>
      <point x="1712" y="0" type="line"/>
      <point x="1706" y="359" type="line"/>
      <point x="1616" y="359" type="line" smooth="yes"/>
      <point x="1573" y="359"/>
      <point x="1549" y="412"/>
      <point x="1549" y="451" type="curve" smooth="yes"/>
      <point x="1549" y="592" type="line" smooth="yes"/>
      <point x="1549" y="788"/>
      <point x="1399" y="840"/>
      <point x="1203" y="840" type="curve"/>
      <point x="1203" y="854" type="line"/>
      <point x="1522" y="1240" type="line"/>
      <point x="1659" y="1240" type="line"/>
      <point x="1659" y="1592" type="line"/>
      <point x="1035" y="1592" type="line"/>
      <point x="1035" y="1240" type="line"/>
      <point x="748" y="877" type="line"/>
      <point x="748" y="1240" type="line"/>
      <point x="875" y="1240" type="line"/>
      <point x="875" y="1592" type="line"/>
      <point x="54" y="1592" type="line"/>
      <point x="54" y="1240" type="line"/>
      <point x="201" y="1240" type="line"/>
      <point x="201" y="359" type="line"/>
      <point x="54" y="359" type="line"/>
      <point x="54" y="0" type="line"/>
      <point x="882" y="0" type="line"/>
      <point x="875" y="359" type="line"/>
      <point x="748" y="359" type="line"/>
      <point x="748" y="630" type="line"/>
      <point x="918" y="630" type="line" smooth="yes"/>
      <point x="980" y="630"/>
      <point x="1028" y="543"/>
      <point x="1028" y="482" type="curve" smooth="yes"/>
    </contour>
    <contour>
      <point x="883" y="1593" type="move" name="top"/>
    </contour>
    <contour>
      <point x="883" y="0" type="move" name="bot"/>
    </contour>
  </outline>
</glyph>
<glyph name="L" format="1">
  <advance width="1359"/>
  <unicode hex="004C"/>
  <outline>
    <contour>
      <point x="768" y="359" type="line"/>
      <point x="768" y="1240" type="line"/>
      <point x="922" y="1240" type="line"/>
      <point x="922" y="1592" type="line"/>
      <point x="54" y="1592" type="line"/>
      <point x="54" y="1240" type="line"/>
      <point x="201" y="1240" type="line"/>
      <point x="201" y="359" type="line"/>
      <point x="59" y="359" type="line"/>
      <point x="59" y="0" type="line"/>
      <point x="1332" y="0" type="line"/>
      <point x="1332" y="709" type="line"/>
      <point x="1046" y="709" type="line"/>
      <point x="959" y="359" type="line"/>
    </contour>
    <contour>
      <point x="693" y="1593" type="move" name="top"/>
    </contour>
    <contour>
      <point x="693" y="0" type="move" name="bot"/>
    </contour>
  </outline>
</glyph>
<glyph name="M" format="1">
  <advance width="2320"/>
  <unicode hex="004D"/>
  <outline>
    <contour>
      <point x="709" y="359" type="curve"/>
      <point x="709" y="0" type="line"/>
      <point x="58" y="0" type="line"/>
      <point x="58" y="359" type="line"/>
      <point x="171" y="359"/>
      <point x="222" y="360"/>
      <point x="222" y="360" type="curve"/>
      <point x="222" y="1240" type="line"/>
      <point x="54" y="1240" type="line"/>
      <point x="54" y="1593" type="line"/>
      <point x="889" y="1593" type="line"/>
      <point x="1199" y="826" type="line"/>
      <point x="1475" y="1593" type="line"/>
      <point x="2259" y="1593" type="line"/>
      <point x="2259" y="1240" type="line"/>
      <point x="2112" y="1240" type="line"/>
      <point x="2112" y="359" type="line"/>
      <point x="2266" y="359" type="line"/>
      <point x="2266" y="0" type="line"/>
      <point x="1463" y="0" type="line"/>
      <point x="1463" y="359" type="line"/>
      <point x="1586" y="359" type="line"/>
      <point x="1586" y="947" type="line"/>
      <point x="1244" y="0" type="line"/>
      <point x="963" y="0" type="line"/>
      <point x="547" y="969" type="line"/>
      <point x="547" y="360" type="line"/>
      <point x="547" y="360"/>
      <point x="613" y="359"/>
    </contour>
    <contour>
      <point x="1160" y="1593" type="move" name="top"/>
    </contour>
    <contour>
      <point x="1160" y="0" type="move" name="bot"/>
    </contour>
  </outline>
</glyph>
<glyph name="R" format="1">
  <advance width="1729"/>
  <unicode hex="0052"/>
  <outline>
    <contour>
      <point x="1598" y="1160" type="curve"/>
      <point x="1598" y="941"/>
      <point x="1438" y="834"/>
      <point x="1239" y="797" type="curve"/>
      <point x="1392" y="762"/>
      <point x="1516" y="706"/>
      <point x="1516" y="548" type="curve" smooth="yes"/>
      <point x="1516" y="465" type="line" smooth="yes"/>
      <point x="1516" y="367"/>
      <point x="1578" y="358"/>
      <point x="1680" y="358" type="curve"/>
      <point x="1680" y="-1" type="line"/>
      <point x="1356" y="-1" type="line" smooth="yes"/>
      <point x="1159" y="-1"/>
      <point x="1028" y="53"/>
      <point x="1028" y="255" type="curve" smooth="yes"/>
      <point x="1028" y="440" type="line" smooth="yes"/>
      <point x="1028" y="592"/>
      <point x="995" y="683"/>
      <point x="842" y="683" type="curve" smooth="yes"/>
      <point x="744" y="683" type="line"/>
      <point x="744" y="358" type="line"/>
      <point x="865" y="358" type="line"/>
      <point x="865" y="-1" type="line"/>
      <point x="689" y="-1"/>
      <point x="419" y="-1"/>
      <point x="55" y="-2" type="curve"/>
      <point x="55" y="358" type="line"/>
      <point x="209" y="358" type="line"/>
      <point x="209" y="1239" type="line"/>
      <point x="54" y="1239" type="line"/>
      <point x="54" y="1592" type="line"/>
      <point x="1069" y="1592" type="line" smooth="yes"/>
      <point x="1396" y="1592"/>
      <point x="1598" y="1473"/>
    </contour>
    <contour>
      <point x="1049" y="1085" type="curve" smooth="yes"/>
      <point x="1049" y="1183"/>
      <point x="972" y="1239"/>
      <point x="859" y="1239" type="curve" smooth="yes"/>
      <point x="738" y="1239" type="line"/>
      <point x="738" y="909" type="line"/>
      <point x="799" y="909" type="line" smooth="yes"/>
      <point x="934" y="909"/>
      <point x="1049" y="949"/>
    </contour>
    <contour>
      <point x="867" y="1593" type="move" name="top"/>
    </contour>
    <contour>
      <point x="867" y="0" type="move" name="bot"/>
    </contour>
  </outline>
</glyph>
<glyph name="S" format="1">
  <advance width="1318"/>
  <unicode hex="0053"/>
  <outline>
    <contour>
      <point x="617" y="1275" type="curve" smooth="yes"/>
      <point x="543" y="1275"/>
      <point x="501" y="1242"/>
      <point x="501" y="1183" type="curve" smooth="yes"/>
      <point x="501" y="1112"/>
      <point x="611" y="1085"/>
      <point x="711" y="1062" type="curve" smooth="yes"/>
      <point x="1023" y="991"/>
      <point x="1287" y="873"/>
      <point x="1287" y="501" type="curve" smooth="yes"/>
      <point x="1287" y="203"/>
      <point x="1088" y="-29"/>
      <point x="780" y="-29" type="curve" smooth="yes"/>
      <point x="607" y="-29"/>
      <point x="531" y="11"/>
      <point x="429" y="92" type="curve"/>
      <point x="393" y="0" type="line"/>
      <point x="70" y="0" type="line"/>
      <point x="70" y="488" type="line"/>
      <point x="392" y="488" type="line"/>
      <point x="435" y="368"/>
      <point x="528" y="334"/>
      <point x="646" y="334" type="curve" smooth="yes"/>
      <point x="718" y="334"/>
      <point x="785" y="364"/>
      <point x="785" y="420" type="curve" smooth="yes"/>
      <point x="785" y="494"/>
      <point x="698" y="518"/>
      <point x="625" y="538" type="curve" smooth="yes"/>
      <point x="302" y="626"/>
      <point x="33" y="735"/>
      <point x="33" y="1133" type="curve" smooth="yes"/>
      <point x="33" y="1423"/>
      <point x="245" y="1623"/>
      <point x="489" y="1623" type="curve" smooth="yes"/>
      <point x="647" y="1623"/>
      <point x="775" y="1593"/>
      <point x="873" y="1533" type="curve"/>
      <point x="876" y="1541"/>
      <point x="887" y="1561"/>
      <point x="906" y="1593" type="curve"/>
      <point x="1191" y="1593" type="line"/>
      <point x="1191" y="1117" type="line"/>
      <point x="884" y="1117" type="line"/>
      <point x="821" y="1238"/>
      <point x="751" y="1275"/>
    </contour>
    <contour>
      <point x="660" y="1593" type="move" name="top"/>
    </contour>
    <contour>
      <point x="660" y="0" type="move" name="bot"/>
    </contour>
  </outline>
</glyph>
<glyph name="underscore" format="1">
  <advance width="1328"/>
  <unicode hex="005F"/>
  <outline>
    <contour>
      <point x="1262" y="-1" type="line"/>
      <point x="69" y="-1" type="line"/>
      <point x="69" y="-224" type="line"/>
      <point x="1262" y="-224" type="line"/>
    </contour>
  </outline>
</glyph>
<glyph name="b" format="1">
  <advance width="1432"/>
  <unicode hex="0062"/>
  <outline>
    <contour>
      <point x="930.0" y="1092.0" type="curve" smooth="yes"/>
      <point x="1228.0" y="1092.0"/>
      <point x="1382.0" y="837.0"/>
      <point x="1382.0" y="538.0" type="curve" smooth="yes"/>
      <point x="1382.0" y="228.0"/>
      <point x="1222.0" y="-18.0"/>
      <point x="909.0" y="-18.0" type="curve" smooth="yes"/>
      <point x="776.0" y="-18.0"/>
      <point x="689.0" y="38.0"/>
      <point x="633.0" y="102.0" type="curve"/>
      <point x="593.0" y="0.0" type="line"/>
      <point x="142.0" y="0.0" type="line"/>
      <point x="142.0" y="1222.0" type="line"/>
      <point x="-1.0" y="1222.0" type="line"/>
      <point x="-1.0" y="1495.0" type="line"/>
      <point x="624.0" y="1560.0" type="line"/>
      <point x="624.0" y="965.0" type="line"/>
      <point x="729.0" y="1050.0"/>
      <point x="831.0" y="1092.0"/>
    </contour>
    <contour>
      <point x="764.0" y="779.0" type="curve" smooth="yes"/>
      <point x="696.0" y="779.0"/>
      <point x="651.0" y="743.0"/>
      <point x="629.0" y="713.0" type="curve"/>
      <point x="629.0" y="344.0" type="line"/>
      <point x="656.0" y="321.0"/>
      <point x="704.0" y="294.0"/>
      <point x="764.0" y="294.0" type="curve" smooth="yes"/>
      <point x="864.0" y="294.0"/>
      <point x="910.0" y="389.0"/>
      <point x="910.0" y="509.0" type="curve" smooth="yes"/>
      <point x="910.0" y="646.0"/>
      <point x="886.0" y="779.0"/>
    </contour>
    <contour>
      <point x="690.0" y="1008.0" type="move" name="top"/>
    </contour>
    <contour>
      <point x="690.0" y="0.0" type="move" name="bot"/>
    </contour>
  </outline>
</glyph>
<glyph name="d" format="1">
  <advance width="1428"/>
  <unicode hex="0064"/>
  <outline>
    <contour>
      <point x="497" y="-18" type="curve"/>
      <point x="193" y="-18"/>
      <point x="34" y="246"/>
      <point x="34" y="550" type="curve" smooth="yes"/>
      <point x="34" y="835"/>
      <point x="202" y="1091"/>
      <point x="489" y="1091" type="curve" smooth="yes"/>
      <point x="633" y="1091"/>
      <point x="713" y="1040"/>
      <point x="792" y="960" type="curve"/>
      <point x="792" y="1222" type="line"/>
      <point x="638" y="1222" type="line"/>
      <point x="638" y="1495" type="line"/>
      <point x="1279" y="1560" type="line"/>
      <point x="1279" y="301" type="line"/>
      <point x="1396" y="301" type="line"/>
      <point x="1396" y="0" type="line"/>
      <point x="792" y="0" type="line"/>
      <point x="792" y="128" type="line"/>
      <point x="731" y="47"/>
      <point x="629" y="-17"/>
    </contour>
    <contour>
      <point x="505" y="558" type="curve" smooth="yes"/>
      <point x="505" y="426"/>
      <point x="535" y="294"/>
      <point x="657" y="294" type="curve" smooth="yes"/>
      <point x="725" y="294"/>
      <point x="770" y="335"/>
      <point x="792" y="370" type="curve"/>
      <point x="792" y="709" type="line"/>
      <point x="765" y="740"/>
      <point x="717" y="779"/>
      <point x="657" y="779" type="curve" smooth="yes"/>
      <point x="557" y="779"/>
      <point x="505" y="685"/>
    </contour>
    <contour>
      <point x="715" y="1008" type="move" name="top"/>
    </contour>
    <contour>
      <point x="715" y="0" type="move" name="bot"/>
    </contour>
  </outline>
</glyph>
<glyph name="l" format="1">
  <advance width="809"/>
  <unicode hex="006C"/>
  <outline>
    <contour>
      <point x="663" y="301" type="line"/>
      <point x="663" y="1560" type="line"/>
      <point x="44" y="1495" type="line"/>
      <point x="44" y="1222" type="line"/>
      <point x="176" y="1222" type="line"/>
      <point x="176" y="301" type="line"/>
      <point x="44" y="301" type="line"/>
      <point x="44" y="0" type="line"/>
      <point x="761" y="0" type="line"/>
      <point x="761" y="301" type="line"/>
    </contour>
    <contour>
      <point x="406" y="1008" type="move" name="top"/>
    </contour>
    <contour>
      <point x="406" y="0" type="move" name="bot"/>
    </contour>
  </outline>
</glyph>
<glyph name="n" format="1">
  <advance width="1480"/>
  <unicode hex="006E"/>
  <outline>
    <contour>
      <point x="44" y="0" type="line"/>
      <point x="744" y="0" type="line"/>
      <point x="744" y="301" type="line"/>
      <point x="656" y="301" type="line"/>
      <point x="656" y="666" type="line" smooth="yes"/>
      <point x="656" y="728"/>
      <point x="698" y="779"/>
      <point x="760" y="779" type="curve" smooth="yes"/>
      <point x="814" y="779"/>
      <point x="850" y="726"/>
      <point x="850" y="669" type="curve" smooth="yes"/>
      <point x="850" y="0" type="line"/>
      <point x="1454" y="0" type="line"/>
      <point x="1454" y="301" type="line"/>
      <point x="1334" y="301" type="line"/>
      <point x="1334" y="680" type="line" smooth="yes"/>
      <point x="1334" y="955"/>
      <point x="1234" y="1091"/>
      <point x="1014" y="1091" type="curve" smooth="yes"/>
      <point x="847" y="1091"/>
      <point x="724" y="1021"/>
      <point x="656" y="916" type="curve"/>
      <point x="656" y="1091" type="line"/>
      <point x="44" y="1032" type="line"/>
      <point x="44" y="761" type="line"/>
      <point x="177" y="761" type="line"/>
      <point x="177" y="301" type="line"/>
      <point x="44" y="301" type="line"/>
    </contour>
    <contour>
      <point x="753" y="1008" type="move" name="top"/>
    </contour>
    <contour>
      <point x="753" y="0" type="move" name="bot"/>
    </contour>
  </outline>
</glyph>
<glyph name="q" format="1">
  <advance width="1440"/>
  <unicode hex="0071"/>
  <outline>
    <contour>
      <point x="689" y="-398" type="line"/>
      <point x="1405" y="-398" type="line"/>
      <point x="1405" y="-94" type="line"/>
      <point x="1287" y="-94" type="line"/>
      <point x="1287" y="761" type="line"/>
      <point x="1381" y="761" type="line"/>
      <point x="1381" y="1072" type="line"/>
      <point x="873" y="1072" type="line"/>
      <point x="800" y="922" type="line"/>
      <point x="743" y="1003"/>
      <point x="644" y="1091"/>
      <point x="486" y="1091" type="curve" smooth="yes"/>
      <point x="190" y="1091"/>
      <point x="34" y="839"/>
      <point x="34" y="541" type="curve" smooth="yes"/>
      <point x="34" y="242"/>
      <point x="187" y="-18"/>
      <point x="488" y="-18" type="curve" smooth="yes"/>
      <point x="634" y="-18"/>
      <point x="738" y="53"/>
      <point x="800" y="119" type="curve"/>
      <point x="800" y="-96" type="line"/>
      <point x="689" y="-96" type="line"/>
    </contour>
    <contour>
      <point x="672" y="294" type="curve" smooth="yes"/>
      <point x="546" y="294"/>
      <point x="506" y="405"/>
      <point x="505" y="535" type="curve"/>
      <point x="505" y="699"/>
      <point x="559" y="779"/>
      <point x="668" y="779" type="curve" smooth="yes"/>
      <point x="738" y="779"/>
      <point x="787" y="739"/>
      <point x="800" y="685" type="curve"/>
      <point x="800" y="390" type="line" smooth="yes"/>
      <point x="800" y="335"/>
      <point x="739" y="294"/>
    </contour>
    <contour>
      <point x="719" y="1008" type="move" name="top"/>
    </contour>
    <contour>
      <point x="719" y="0" type="move" name="bot"/>
    </contour>
  </outline>
</glyph>
<glyph name="u" format="1">
  <advance width="1466"/>
  <unicode hex="0075"/>
  <outline>
    <contour>
      <point x="1314" y="1092" type="line"/>
      <point x="1314" y="301" type="line"/>
      <point x="1434" y="301" type="line"/>
      <point x="1434" y="0" type="line"/>
      <point x="828" y="0" type="line"/>
      <point x="828" y="156" type="line"/>
      <point x="760" y="51"/>
      <point x="638" y="-18"/>
      <point x="470" y="-18" type="curve" smooth="yes"/>
      <point x="257" y="-18"/>
      <point x="147" y="116"/>
      <point x="147" y="385" type="curve" smooth="yes"/>
      <point x="147" y="761" type="line"/>
      <point x="31" y="761" type="line"/>
      <point x="31" y="1032" type="line"/>
      <point x="634" y="1092" type="line"/>
      <point x="634" y="394" type="line" smooth="yes"/>
      <point x="634" y="344"/>
      <point x="668" y="294"/>
      <point x="724" y="294" type="curve" smooth="yes"/>
      <point x="787" y="294"/>
      <point x="827" y="343"/>
      <point x="827" y="402" type="curve" smooth="yes"/>
      <point x="827" y="761" type="line"/>
      <point x="728" y="761" type="line"/>
      <point x="728" y="1032" type="line"/>
    </contour>
    <contour>
      <point x="732" y="1008" type="move" name="top"/>
    </contour>
    <contour>
      <point x="732" y="0" type="move" name="bot"/>
    </contour>
  </outline>
</glyph>
<glyph name="dieresis" format="1">
  <advance width="1184"/>
  <unicode hex="00A8"/>
  <outline>
    <contour>
      <point x="504" y="1453" type="curve" smooth="yes"/>
      <point x="504" y="1586"/>
      <point x="411" y="1682"/>
      <point x="278" y="1682" type="curve" smooth="yes"/>
      <point x="147" y="1682"/>
      <point x="52" y="1586"/>
      <point x="52" y="1455" type="curve" smooth="yes"/>
      <point x="52" y="1322"/>
      <point x="144" y="1222"/>
      <point x="279" y="1222" type="curve" smooth="yes"/>
      <point x="411" y="1222"/>
      <point x="504" y="1323"/>
    </contour>
    <contour>
      <point x="1119" y="1452" type="curve" smooth="yes"/>
      <point x="1119" y="1585"/>
      <point x="1026" y="1681"/>
      <point x="893" y="1681" type="curve" smooth="yes"/>
      <point x="762" y="1681"/>
      <point x="667" y="1585"/>
      <point x="667" y="1454" type="curve" smooth="yes"/>
      <point x="667" y="1321"/>
      <point x="759" y="1221"/>
      <point x="894" y="1221" type="curve" smooth="yes"/>
      <point x="1026" y="1221"/>
      <point x="1119" y="1322"/>
    </contour>
    <contour>
      <point x="589" y="1072" type="move" name="_top"/>
    </contour>
  </outline>
</glyph>
<glyph name="multiply" format="1">
  <advance width="810"/>
  <unicode hex="00D7"/>
  <outline>
    <contour>
      <point x="405" y="467" type="line"/>
      <point x="597" y="274" type="line"/>
      <point x="770" y="447" type="line"/>
      <point x="578" y="640" type="line"/>
      <point x="782" y="844" type="line"/>
      <point x="602" y="1024" type="line"/>
      <point x="405" y="820" type="line"/>
      <point x="208" y="1024" type="line"/>
      <point x="28" y="844" type="line"/>
      <point x="232" y="640" type="line"/>
      <point x="40" y="447" type="line"/>
      <point x="213" y="274" type="line"/>
    </contour>
  </outline>
</glyph>
<glyph name="Thorn" format="1">
  <advance width="1613"/>
  <unicode hex="00DE"/>
  <outline>
    <contour>
      <point x="54" y="363" type="line"/>
      <point x="54" y="0" type="line"/>
      <point x="915" y="0" type="line"/>
      <point x="915" y="363" type="line"/>
      <point x="769" y="363" type="line"/>
      <point x="769" y="569" type="line"/>
      <point x="822" y="562"/>
      <point x="872" y="559"/>
      <point x="919" y="559" type="curve" smooth="yes"/>
      <point x="1020" y="559"/>
      <point x="1110" y="568"/>
      <point x="1189" y="587" type="curve" smooth="yes"/>
      <point x="1268" y="606"/>
      <point x="1337" y="635"/>
      <point x="1396" y="675" type="curve" smooth="yes"/>
      <point x="1455" y="715"/>
      <point x="1500" y="768"/>
      <point x="1531" y="834" type="curve" smooth="yes"/>
      <point x="1562" y="900"/>
      <point x="1578" y="977"/>
      <point x="1578" y="1066" type="curve" smooth="yes"/>
      <point x="1578" y="1115"/>
      <point x="1573" y="1160"/>
      <point x="1563" y="1201" type="curve" smooth="yes"/>
      <point x="1553" y="1242"/>
      <point x="1539" y="1277"/>
      <point x="1522" y="1307" type="curve" smooth="yes"/>
      <point x="1505" y="1337"/>
      <point x="1483" y="1364"/>
      <point x="1456" y="1388" type="curve" smooth="yes"/>
      <point x="1429" y="1412"/>
      <point x="1401" y="1432"/>
      <point x="1372" y="1448" type="curve" smooth="yes"/>
      <point x="1343" y="1464"/>
      <point x="1309" y="1478"/>
      <point x="1269" y="1490" type="curve" smooth="yes"/>
      <point x="1229" y="1502"/>
      <point x="1191" y="1511"/>
      <point x="1155" y="1518" type="curve" smooth="yes"/>
      <point x="1119" y="1525"/>
      <point x="1077" y="1530"/>
      <point x="1030" y="1534" type="curve" smooth="yes"/>
      <point x="983" y="1538"/>
      <point x="940" y="1540"/>
      <point x="901" y="1541" type="curve" smooth="yes"/>
      <point x="862" y="1542"/>
      <point x="818" y="1542"/>
      <point x="769" y="1542" type="curve"/>
      <point x="770" y="1842" type="line"/>
      <point x="60" y="1842" type="line"/>
      <point x="60" y="1487" type="line"/>
      <point x="211" y="1487" type="line"/>
      <point x="211" y="362" type="line"/>
    </contour>
    <contour>
      <point x="770" y="894" type="line"/>
      <point x="770" y="1207" type="line"/>
      <point x="874" y="1207" type="line" smooth="yes"/>
      <point x="925" y="1207"/>
      <point x="968" y="1194"/>
      <point x="1004" y="1169" type="curve" smooth="yes"/>
      <point x="1040" y="1144"/>
      <point x="1058" y="1106"/>
      <point x="1058" y="1055" type="curve" smooth="yes"/>
      <point x="1058" y="998"/>
      <point x="1038" y="957"/>
      <point x="999" y="932" type="curve" smooth="yes"/>
      <point x="960" y="907"/>
      <point x="904" y="894"/>
      <point x="831" y="894" type="curve" smooth="yes"/>
    </contour>
  </outline>
</glyph>
<glyph name="dotlessj" format="1">
  <advance width="692"/>
  <unicode hex="0237"/>
  <outline>
    <contour>
      <point x="169" y="-9" type="curve"/>
      <point x="169" y="761" type="line"/>
      <point x="39" y="761" type="line"/>
      <point x="39" y="1008" type="line"/>
      <point x="656" y="1072" type="line"/>
      <point x="656" y="129" type="line" smooth="yes"/>
      <point x="656" y="-269"/>
      <point x="449" y="-398"/>
      <point x="32" y="-398" type="curve"/>
      <point x="32" y="-72" type="line"/>
      <point x="44" y="-72" type="line"/>
      <point x="97" y="-72"/>
      <point x="167" y="-65"/>
    </contour>
    <contour>
      <point x="420" y="1072" type="move" name="top"/>
    </contour>
  </outline>
</glyph>
<glyph name="breve" format="1">
  <advance width="926"/>
  <unicode hex="02D8"/>
  <outline>
    <contour>
      <point x="464" y="1245" type="line"/>
      <point x="595" y="1245"/>
      <point x="695" y="1278"/>
      <point x="764" y="1345" type="curve" smooth="yes"/>
      <point x="833" y="1412"/>
      <point x="867" y="1504"/>
      <point x="867" y="1621" type="curve"/>
      <point x="615" y="1621" type="line"/>
      <point x="615" y="1570"/>
      <point x="600" y="1530"/>
      <point x="570" y="1502" type="curve" smooth="yes"/>
      <point x="540" y="1474"/>
      <point x="504" y="1460"/>
      <point x="463" y="1460" type="curve" smooth="yes"/>
      <point x="422" y="1460"/>
      <point x="386" y="1474"/>
      <point x="356" y="1502" type="curve" smooth="yes"/>
      <point x="326" y="1530"/>
      <point x="311" y="1569"/>
      <point x="311" y="1620" type="curve"/>
      <point x="59" y="1620" type="line"/>
      <point x="59" y="1502"/>
      <point x="93" y="1410"/>
      <point x="161" y="1343" type="curve" smooth="yes"/>
      <point x="229" y="1276"/>
      <point x="329" y="1243"/>
      <point x="462" y="1243" type="curve"/>
    </contour>
    <contour>
      <point x="463" y="1072" type="move" name="_top"/>
    </contour>
  </outline>
</glyph>
<glyph name="ring" format="1">
  <advance width="668"/>
  <unicode hex="02DA"/>
  <outline>
    <contour>
      <point x="328" y="1340" type="curve"/>
      <point x="228" y="1340"/>
      <point x="169" y="1409"/>
      <point x="169" y="1488" type="curve" smooth="yes"/>
      <point x="169" y="1564"/>
      <point x="225" y="1633"/>
      <point x="328" y="1633" type="curve" smooth="yes"/>
      <point x="432" y="1633"/>
      <point x="493" y="1565"/>
      <point x="493" y="1488" type="curve" smooth="yes"/>
      <point x="493" y="1409"/>
      <point x="430" y="1340"/>
    </contour>
    <contour>
      <point x="328" y="1239" type="curve" smooth="yes"/>
      <point x="502" y="1239"/>
      <point x="609" y="1357"/>
      <point x="609" y="1489" type="curve" smooth="yes"/>
      <point x="609" y="1620"/>
      <point x="506" y="1733"/>
      <point x="328" y="1733" type="curve" smooth="yes"/>
      <point x="155" y="1733"/>
      <point x="57" y="1620"/>
      <point x="57" y="1490" type="curve" smooth="yes"/>
      <point x="57" y="1358"/>
      <point x="157" y="1239"/>
    </contour>
    <contour>
      <point x="333" y="1072" type="move" name="_top"/>
    </contour>
  </outline>
</glyph>
<glyph name="ogonek" format="1">
  <advance width="527"/>
  <unicode hex="02DB"/>
  <outline>
    <contour>
      <point x="66" y="-288" type="curve" smooth="yes"/>
      <point x="66" y="-242"/>
      <point x="76" y="-243"/>
      <point x="231" y="0" type="curve"/>
      <point x="407" y="0" type="line"/>
      <point x="330" y="-158"/>
      <point x="268" y="-231"/>
      <point x="268" y="-273" type="curve" smooth="yes"/>
      <point x="268" y="-330"/>
      <point x="324" y="-373"/>
      <point x="455" y="-375" type="curve"/>
      <point x="455" y="-488" type="line"/>
      <point x="434" y="-488" type="line" smooth="yes"/>
      <point x="237" y="-488"/>
      <point x="66" y="-399"/>
    </contour>
    <contour>
      <point x="260" y="0" type="move" name="_bot"/>
    </contour>
  </outline>
</glyph>
<glyph name="quoteright" format="1">
  <advance width="649"/>
  <unicode hex="2019"/>
  <outline>
    <contour>
      <point x="64" y="1034" type="line"/>
      <point x="64" y="809" type="line"/>
      <point x="247" y="809"/>
      <point x="382" y="852"/>
      <point x="469" y="938" type="curve" smooth="yes"/>
      <point x="556" y="1024"/>
      <point x="599" y="1160"/>
      <point x="599" y="1345" type="curve" smooth="yes"/>
      <point x="599" y="1426"/>
      <point x="591" y="1518"/>
      <point x="575" y="1621" type="curve"/>
      <point x="65" y="1621" type="line"/>
      <point x="65" y="1255" type="line"/>
      <point x="254" y="1255" type="line"/>
      <point x="254" y="1227"/>
      <point x="254" y="1205"/>
      <point x="253" y="1190" type="curve" smooth="yes"/>
      <point x="252" y="1175"/>
      <point x="250" y="1157"/>
      <point x="246" y="1137" type="curve" smooth="yes"/>
      <point x="242" y="1117"/>
      <point x="236" y="1102"/>
      <point x="228" y="1091" type="curve" smooth="yes"/>
      <point x="220" y="1080"/>
      <point x="209" y="1069"/>
      <point x="195" y="1059" type="curve" smooth="yes"/>
      <point x="181" y="1049"/>
      <point x="163" y="1042"/>
      <point x="141" y="1038" type="curve" smooth="yes"/>
      <point x="119" y="1034"/>
      <point x="93" y="1032"/>
      <point x="63" y="1032" type="curve"/>
    </contour>
  </outline>
</glyph>
<glyph name="guilsinglright" format="1">
  <advance width="713"/>
  <unicode hex="203A"/>
  <outline>
    <contour>
      <point x="661" y="399" type="line"/>
      <point x="661" y="669" type="line"/>
      <point x="235" y="1073" type="line"/>
      <point x="44" y="849" type="line"/>
      <point x="359" y="534" type="line"/>
      <point x="44" y="219" type="line"/>
      <point x="235" y="-5" type="line"/>
    </contour>
  </outline>
</glyph>
<glyph name="Ymacron" format="1">
  <advance width="1670"/>
  <outline>
    <contour>
      <point x="1625" y="1622" type="line"/>
      <point x="1625" y="1270" type="line"/>
      <point x="1551" y="1270" type="line" smooth="yes"/>
      <point x="1528" y="1270"/>
      <point x="1507" y="1267"/>
      <point x="1489" y="1262" type="curve" smooth="yes"/>
      <point x="1471" y="1257"/>
      <point x="1456" y="1251"/>
      <point x="1444" y="1244" type="curve" smooth="yes"/>
      <point x="1432" y="1237"/>
      <point x="1419" y="1224"/>
      <point x="1406" y="1206" type="curve" smooth="yes"/>
      <point x="1393" y="1188"/>
      <point x="1382" y="1172"/>
      <point x="1374" y="1159" type="curve" smooth="yes"/>
      <point x="1366" y="1146"/>
      <point x="1354" y="1124"/>
      <point x="1338" y="1094" type="curve" smooth="yes"/>
      <point x="1134" y="723" type="line"/>
      <point x="1134" y="358" type="line"/>
      <point x="1291" y="358" type="line"/>
      <point x="1291" y="-1" type="line"/>
      <point x="422" y="-1" type="line"/>
      <point x="422" y="358" type="line"/>
      <point x="577" y="358" type="line"/>
      <point x="577" y="671" type="line"/>
      <point x="156" y="1269" type="line"/>
      <point x="44" y="1269" type="line"/>
      <point x="44" y="1621" type="line"/>
      <point x="896" y="1621" type="line"/>
      <point x="896" y="1269" type="line"/>
      <point x="805" y="1269" type="line"/>
      <point x="820" y="1249"/>
      <point x="851" y="1203"/>
      <point x="898" y="1131" type="curve" smooth="yes"/>
      <point x="945" y="1059"/>
      <point x="975" y="1013"/>
      <point x="989" y="993" type="curve"/>
      <point x="1065" y="1108"/>
      <point x="1103" y="1184"/>
      <point x="1103" y="1221" type="curve" smooth="yes"/>
      <point x="1103" y="1227"/>
      <point x="1102" y="1232"/>
      <point x="1101" y="1237" type="curve" smooth="yes"/>
      <point x="1100" y="1242"/>
      <point x="1098" y="1246"/>
      <point x="1095" y="1249" type="curve" smooth="yes"/>
      <point x="1092" y="1252"/>
      <point x="1089" y="1255"/>
      <point x="1087" y="1258" type="curve" smooth="yes"/>
      <point x="1085" y="1261"/>
      <point x="1081" y="1263"/>
      <point x="1076" y="1264" type="curve" smooth="yes"/>
      <point x="1071" y="1265"/>
      <point x="1067" y="1266"/>
      <point x="1063" y="1267" type="curve" smooth="yes"/>
      <point x="1059" y="1268"/>
      <point x="1053" y="1268"/>
      <point x="1046" y="1268" type="curve" smooth="yes"/>
      <point x="1028" y="1268" type="line"/>
      <point x="1006" y="1268" type="line"/>
      <point x="983" y="1268" type="line"/>
      <point x="983" y="1620" type="line"/>
    </contour>
    <contour>
      <point x="1264" y="1694" type="line"/>
      <point x="1264" y="2029" type="line"/>
      <point x="516" y="2029" type="line"/>
      <point x="516" y="1694" type="line"/>
    </contour>
  </outline>
</glyph>
<glyph name="fl" format="1">
  <advance width="1599"/>
  <outline>
    <contour>
      <point x="1479" y="305" type="line"/>
      <point x="1479" y="1623" type="line"/>
      <point x="515" y="1623" type="line" smooth="yes"/>
      <point x="388" y="1623"/>
      <point x="293" y="1587"/>
      <point x="230" y="1516" type="curve" smooth="yes"/>
      <point x="167" y="1445"/>
      <point x="135" y="1342"/>
      <point x="135" y="1207" type="curve"/>
      <point x="136" y="1163"/>
      <point x="136" y="1130"/>
      <point x="136" y="1108" type="curve" smooth="yes"/>
      <point x="136" y="1086"/>
      <point x="136" y="1074"/>
      <point x="136" y="1073" type="curve"/>
      <point x="53" y="1073" type="line"/>
      <point x="53" y="762" type="line"/>
      <point x="137" y="762" type="line"/>
      <point x="137" y="306" type="line"/>
      <point x="53" y="306" type="line"/>
      <point x="53" y="1" type="line"/>
      <point x="733" y="1" type="line"/>
      <point x="733" y="306" type="line"/>
      <point x="623" y="306" type="line"/>
      <point x="623" y="762" type="line"/>
      <point x="795" y="762" type="line"/>
      <point x="795" y="1073" type="line"/>
      <point x="616" y="1073" type="line"/>
      <point x="612" y="1145"/>
      <point x="619" y="1203"/>
      <point x="637" y="1246" type="curve" smooth="yes"/>
      <point x="655" y="1289"/>
      <point x="685" y="1311"/>
      <point x="727" y="1311" type="curve" smooth="yes"/>
      <point x="984" y="1311" type="line"/>
      <point x="984" y="306" type="line"/>
      <point x="910" y="306" type="line"/>
      <point x="910" y="1" type="line"/>
      <point x="1557" y="1" type="line"/>
      <point x="1557" y="306" type="line"/>
    </contour>
  </outline>
</glyph>
